<?xml version="1.0" standalone="no"?>
<!DOCTYPE svg PUBLIC "-//W3C//DTD SVG 20010904//EN"
 "http://www.w3.org/TR/2001/REC-SVG-20010904/DTD/svg10.dtd">
<svg version="1.0" xmlns="http://www.w3.org/2000/svg"
 width="2400.000000pt" height="1600.000000pt" viewBox="0 0 2400.000000 1600.000000"
 preserveAspectRatio="xMidYMid meet">

<g transform="translate(0.000000,1600.000000) scale(0.100000,-0.100000)"
fill="#000000" stroke="none">
<path d="M9978 12130 c-13 -21 -52 -27 -63 -10 -3 6 -16 10 -28 10 -16 0 -18
-3 -8 -9 11 -7 11 -9 0 -13 -8 -3 -22 0 -31 6 -21 12 -186 -8 -202 -25 -8 -9
-7 -10 3 -4 9 5 12 4 7 -3 -4 -6 -13 -9 -20 -6 -7 3 -37 -17 -67 -45 -29 -27
-56 -48 -60 -45 -4 2 -12 -3 -19 -11 -7 -8 -9 -15 -5 -15 4 0 -13 -22 -39 -50
-45 -48 -65 -83 -72 -125 -1 -11 -9 -49 -17 -83 -15 -74 -16 -234 0 -254 6 -7
13 -25 16 -39 4 -14 22 -45 42 -70 19 -24 35 -50 35 -56 0 -7 5 -13 10 -13 6
0 10 26 10 58 1 85 37 232 57 232 5 0 21 -14 37 -31 44 -47 70 -60 128 -66 44
-5 51 -4 42 8 -6 8 -14 26 -18 42 -9 36 10 35 52 -3 43 -39 63 -49 105 -54
l35 -5 -9 32 c-19 67 -15 70 49 38 31 -16 84 -34 117 -41 92 -18 124 -37 161
-96 33 -52 34 -52 83 -51 40 2 54 -3 75 -22 23 -21 26 -33 26 -88 0 -72 -27
-137 -63 -154 -17 -8 -26 -27 -40 -82 -22 -90 -22 -90 6 -81 47 14 154 158
198 266 61 147 104 483 75 579 -30 97 -72 164 -125 199 -28 17 -51 36 -51 41
0 5 -4 8 -9 7 -5 -2 -17 6 -26 17 -9 11 -14 13 -10 5 4 -8 -3 -4 -15 10 -12
14 -19 18 -15 10 4 -8 -3 -4 -15 10 -12 14 -18 18 -14 10 4 -8 -3 -5 -15 8
-24 24 -36 29 -26 10 4 -7 -3 -2 -15 12 -12 14 -18 18 -14 10 4 -8 -4 -4 -19
9 -47 43 -173 48 -224 8 -17 -12 -17 5 -1 21 7 7 9 12 5 12 -4 0 -12 -9 -19
-20z"/>
<path d="M9409 12003 c-13 -16 -12 -17 4 -4 16 13 21 21 13 21 -2 0 -10 -8
-17 -17z"/>
<path d="M9590 11400 c-8 -5 -12 -11 -9 -14 8 -8 79 6 79 15 0 12 -51 11 -70
-1z"/>
<path d="M9925 11400 c-4 -6 14 -9 44 -9 28 1 48 6 45 10 -7 12 -81 11 -89 -1z"/>
<path d="M9975 11323 c4 -14 2 -23 -4 -23 -6 0 -11 -12 -11 -26 0 -19 5 -25
18 -22 23 4 27 48 7 73 -16 20 -16 20 -10 -2z"/>
<path d="M9616 11306 c3 -9 1 -16 -6 -16 -6 0 -10 -10 -8 -22 2 -13 10 -23 18
-23 19 0 21 66 2 73 -7 2 -10 -2 -6 -12z"/>
<path d="M12500 11300 c-43 -13 -97 -19 -159 -20 -88 0 -98 -2 -142 -30 -50
-33 -209 -192 -209 -210 0 -6 -13 -30 -28 -53 -45 -68 -102 -191 -102 -223 0
-16 -9 -42 -20 -59 -19 -29 -20 -48 -20 -415 l0 -385 28 -75 c25 -68 34 -80
99 -135 40 -33 89 -69 110 -80 58 -30 43 -9 184 -270 79 -147 94 -172 128
-221 18 -27 67 -112 108 -189 41 -77 81 -147 88 -155 6 -8 23 -35 36 -60 35
-65 106 -167 241 -346 43 -57 74 -105 69 -109 -10 -5 -17 -82 -26 -255 -5
-100 -15 -217 -31 -342 -15 -121 13 -142 180 -136 129 4 167 18 235 86 42 43
43 45 37 93 -9 63 -15 79 -32 79 -8 0 -14 7 -14 15 0 8 7 15 15 15 8 0 15 2
15 5 0 21 -44 200 -60 240 -10 28 -24 71 -31 98 -14 55 -72 127 -124 151 -33
16 -38 24 -49 86 -2 15 -4 9 -4 -15 0 -63 -1 -65 -25 -65 -16 0 -30 11 -43 33
-10 19 -41 64 -69 100 -50 68 -134 206 -252 415 -35 62 -101 170 -148 241 -85
130 -192 329 -219 409 -13 40 -13 43 2 36 28 -11 57 -10 54 4 -1 6 3 12 8 12
6 0 8 10 4 24 -4 16 -1 25 9 29 9 3 32 35 52 71 38 67 55 82 55 46 0 -30 55
-133 79 -147 18 -11 22 -10 34 13 12 23 12 37 1 91 -8 35 -19 73 -24 84 -7 11
-7 19 -1 19 5 0 23 12 40 26 l30 25 26 -23 c21 -20 25 -34 28 -97 3 -69 6 -76
38 -106 19 -17 47 -57 62 -88 32 -64 30 -62 74 -71 30 -7 38 -2 114 71 47 44
107 115 139 165 52 78 59 94 73 180 34 203 40 281 28 374 -6 49 -15 136 -20
194 -26 272 -33 319 -63 410 -53 164 -83 215 -188 321 -90 91 -99 98 -167 118
-87 26 -166 26 -253 1z m-76 -417 c35 -88 72 -140 119 -166 33 -18 39 -19 47
-7 7 12 18 6 54 -30 24 -25 63 -60 85 -78 36 -30 45 -33 79 -27 65 11 88 -29
80 -132 -5 -51 -9 -61 -45 -93 -22 -19 -45 -49 -51 -66 -13 -40 -76 -128 -105
-147 -14 -9 -31 -37 -41 -69 -21 -65 -48 -107 -90 -136 -17 -13 -46 -34 -65
-47 -41 -30 -48 -31 -56 -5 -7 23 -94 110 -110 110 -8 0 -10 19 -7 59 4 53 2
60 -17 66 -46 14 -123 87 -147 139 -62 136 -70 305 -20 418 l24 53 7 -53 c8
-54 8 -54 39 -48 35 7 59 26 33 26 -27 0 -21 19 38 125 77 141 98 174 111 175
6 0 23 -30 38 -67z m-104 -978 c0 -25 23 -69 32 -64 4 2 14 -5 22 -16 13 -18
13 -22 -4 -35 -10 -8 -27 -30 -38 -48 l-20 -33 -4 33 c-10 67 -9 214 2 198 5
-8 10 -24 10 -35z m858 -1757 c20 -20 15 -40 -8 -33 -15 5 -26 0 -40 -17 -16
-20 -21 -21 -39 -10 -28 17 -31 16 -31 -12 0 -33 -16 -42 -30 -16 -18 33 8 75
45 74 17 0 34 5 38 13 10 16 49 17 65 1z m-65 -131 c-2 -4 3 -10 11 -13 22 -8
20 -24 -3 -24 -20 0 -30 29 -23 65 l5 20 7 -20 c4 -11 6 -23 3 -28z m89 -15
c14 -12 15 -18 6 -29 -10 -12 -15 -10 -35 11 -13 14 -23 30 -23 35 0 13 29 3
52 -17z m-50 -56 c9 -12 15 -30 13 -41 -2 -11 -4 -23 -4 -27 -1 -4 -10 -12
-22 -18 -20 -11 -20 -10 -14 34 7 44 -4 62 -20 36 -5 -8 -11 -7 -20 0 -8 7
-19 9 -25 5 -6 -4 -18 -1 -26 6 -22 18 1 30 56 27 31 -1 50 -8 62 -22z m98
-41 c0 -8 -7 -15 -15 -15 -8 0 -15 7 -15 15 0 8 7 15 15 15 8 0 15 -7 15 -15z
m-100 -88 c0 -12 -9 -30 -20 -40 -17 -14 -27 -37 -17 -37 2 0 30 13 63 29 38
19 63 26 69 19 20 -19 -87 -77 -142 -78 -28 0 -31 34 -7 69 16 22 16 23 -4 12
-29 -15 -52 -14 -52 3 0 19 46 44 83 45 22 1 27 -3 27 -22z"/>
<path d="M12535 10663 c-40 -10 -34 -19 11 -17 25 1 48 5 51 8 4 3 1 6 -5 6
-5 0 -16 2 -24 4 -7 2 -22 1 -33 -1z"/>
<path d="M12537 10593 c-4 -3 -7 -26 -7 -50 0 -37 3 -44 18 -41 22 4 32 98 9
98 -7 0 -17 -3 -20 -7z m23 -23 c0 -5 -4 -10 -10 -10 -5 0 -10 5 -10 10 0 6 5
10 10 10 6 0 10 -4 10 -10z"/>
<path d="M12207 10573 c-10 -9 -8 -55 2 -72 15 -23 31 -2 31 40 0 37 -15 51
-33 32z m23 -23 c0 -5 -4 -10 -10 -10 -5 0 -10 5 -10 10 0 6 5 10 10 10 6 0
10 -4 10 -10z"/>
<path d="M12805 10470 c-8 -16 -15 -39 -14 -52 1 -22 1 -22 8 2 5 18 14 25 29
24 12 -1 22 3 22 7 0 5 -7 9 -16 9 -11 0 -14 6 -9 20 9 30 -2 24 -20 -10z"/>
<path d="M12399 10485 c-4 -5 -10 -31 -13 -57 -7 -47 -7 -48 19 -48 23 0 25 3
19 23 -4 12 -10 38 -13 57 -4 19 -9 31 -12 25z"/>
<path d="M12398 10263 c12 -2 30 -2 40 0 9 3 -1 5 -23 4 -22 0 -30 -2 -17 -4z"/>
<path d="M10299 11223 c-13 -17 -13 -17 6 -3 11 8 22 16 24 17 2 2 0 3 -6 3
-6 0 -17 -8 -24 -17z"/>
<path d="M9765 11173 c-3 -21 -8 -48 -11 -61 -4 -21 -2 -23 18 -17 13 4 23 8
24 9 0 0 -2 25 -4 54 -5 61 -18 68 -27 15z"/>
<path d="M10271 11182 c-17 -31 -13 -40 5 -14 9 13 14 26 11 29 -3 2 -10 -4
-16 -15z"/>
<path d="M10310 11190 c0 -5 5 -10 10 -10 6 0 10 5 10 10 0 6 -4 10 -10 10 -5
0 -10 -4 -10 -10z"/>
<path d="M9785 10920 c-20 -4 -4 -6 47 -6 42 1 69 4 60 8 -21 8 -68 8 -107 -2z"/>
<path d="M9848 10853 c7 -3 16 -2 19 1 4 3 -2 6 -13 5 -11 0 -14 -3 -6 -6z"/>
<path d="M10455 9860 c-3 -5 -4 -14 0 -19 3 -5 1 -12 -5 -16 -5 -3 -10 -1 -10
6 0 8 -4 8 -15 -1 -8 -7 -15 -19 -15 -26 0 -16 -16 -19 -25 -5 -3 5 -26 21
-51 35 -37 21 -49 23 -64 14 -39 -25 -29 -84 27 -155 82 -102 121 -120 152
-69 67 108 96 207 69 234 -17 17 -28 15 -22 -5 5 -17 5 -17 -9 0 -16 20 -23
21 -32 7z"/>
<path d="M9313 8223 l-32 -4 -2 -172 c-3 -243 0 -400 13 -562 6 -77 15 -228
22 -335 l11 -195 120 -12 c66 -6 216 -12 332 -12 l213 -1 5 23 c2 12 6 36 9
52 2 17 9 59 16 95 8 44 10 139 6 307 -3 134 -2 243 2 243 5 0 14 -98 20 -217
6 -120 16 -234 22 -253 6 -19 15 -64 20 -100 6 -36 12 -78 15 -95 l5 -30 127
7 c71 3 219 7 331 8 l202 2 1 52 c0 28 3 60 6 71 11 36 4 806 -9 948 l-12 138
-95 -6 c-53 -4 -158 -13 -233 -21 -261 -27 -459 -17 -753 37 -194 36 -274 43
-362 32z"/>
</g>
</svg>
